<svg id="Laag_1" data-name="Laag 1" xmlns="http://www.w3.org/2000/svg" viewBox="0 0 684.07 78.64">
  <defs>
    <style>
      .cls-1, .cls-2 {
        fill: #163f64;
        stroke: #163f64;
        stroke-miterlimit: 10;
      }

      .cls-2 {
        font-size: 105.48px;
        font-family: BritannicBold, Britannic Bold;
      }
    </style>
  </defs>
  <title>Bravinci logo text blauw</title>
  <g>
    <path class="cls-1" d="M62.38,64.54V44.09s-7.74-4.16-12.92-4.84L41,38.14l8.4-1.49c5.38-.95,9.79-2.56,13-4.78V12.33C54.86,7.47,29.86,4.51,29.86,4.51H.5V72H30C43.66,72,54.82,69.44,62.38,64.54ZM18.78,15.76H29.14c6.27,0,10,.61,12.85,2.09l.7.37V30.08l-.69.37c-2.94,1.58-6.46,2.19-12.56,2.19H18.78Zm1.41,28.13H30.63c6.16,0,9.49.58,12.74,2.21l.73.36v13.3l-.67.38c-2.61,1.46-6.15,2-12.61,2H20.19Z"/>
    <path class="cls-1" d="M134.79,50.46l.73.38V73.43H153.8V46.87c-1.54-1.92-6.41-3.58-11.7-4.49l-7-1.21,6.93-1.38a80.39,80.39,0,0,0,13.14-4.32V12.54c-8-5.62-17.75-8-32.44-8H91.92V72l19.69,1.41V48.11H122C127.73,48.11,131.55,48.81,134.79,50.46Zm-23.18-15V15.76h11.22c6,0,9,.32,12.07,2.27l.62.39V32.87l-.71.37c-3,1.57-6.55,2.21-12.27,2.21Z"/>
    <path class="cls-1" d="M248,72V10.63c-7.89-4.84-19.61-7.72-31.55-7.72-11.73,0-23.8,3-31.74,7.73V72h19.69V50.92h23.91V72Zm-43.6-33.75V18.68l.77-.35a27.24,27.24,0,0,1,11.19-2.17,26.53,26.53,0,0,1,11.2,2.18l.75.35V38.27Z"/>
    <path class="cls-1" d="M343.67,25.83V4.51H324v21C324,46,316.88,54.65,311.69,61l-1,1.26-1-1.26c-5.23-6.49-12.38-15.36-12.38-35.48v-21H277.57V25.83c0,23.45,11.19,37.24,22.27,47.6H321.4C331.85,63.72,343.67,49.55,343.67,25.83Z"/>
    <rect class="cls-1" x="373.2" y="4.51" width="19.69" height="67.51"/>
    <path class="cls-1" d="M469.47,20.3l.78.35V73.43h19.69v-61c-8.39-5.1-20.68-8.13-33.05-8.13s-24.71,3-33.06,8.13v61h19.69V20.65l.78-.35a34.6,34.6,0,0,1,25.17,0Z"/>
    <path class="cls-1" d="M584.17,67.22V49.52H564.48v9l-.82.33a31.55,31.55,0,0,1-11.84,2.07A30.92,30.92,0,0,1,540,58.84l-.81-.34V19.3L540,19a34.41,34.41,0,0,1,11.8-2,33,33,0,0,1,11.82,2l.84.32v9.11h19.69V10.71C575.71,6,564.29,3.34,551.92,3.34c-12.19,0-24,2.68-32.45,7.38v56.5c8.59,4.69,20.36,7.38,32.44,7.38C564.34,74.5,575.75,71.88,584.17,67.22Z"/>
    <rect class="cls-1" x="613.7" y="4.51" width="19.69" height="67.51"/>
    <text class="cls-2" transform="translate(653.44 74.02)">.</text>
  </g>
</svg>
