<svg id="Laag_1" data-name="Laag 1" xmlns="http://www.w3.org/2000/svg" viewBox="0 0 692.94 85.28">
  <defs>
    <style>
      .cls-1, .cls-2 {
        fill: #fff;
        stroke: #fff;
        stroke-miterlimit: 10;
      }

      .cls-2 {
        font-size: 105.48px;
        font-family: BritannicBold, Britannic Bold;
      }
    </style>
  </defs>
  <title>Bravinci logo text Wit</title>
  <g>
    <path class="cls-1" d="M72,66.58V46.14S64.22,42,59,41.29l-8.46-1.11L59,38.69c5.38-.95,9.79-2.56,13-4.78V14.37C64.44,9.51,39.44,6.55,39.44,6.55H10.08V74.06H39.62C53.25,74.06,64.41,71.48,72,66.58ZM28.37,17.81H38.72c6.27,0,10,.6,12.85,2.08l.71.37V32.12l-.7.37c-2.94,1.58-6.46,2.19-12.56,2.19H28.37Zm1.4,28.12H40.21c6.16,0,9.5.58,12.74,2.21l.73.37V61.8l-.67.38c-2.61,1.47-6.14,2-12.61,2H29.77Z"/>
    <path class="cls-1" d="M144.37,52.51l.73.37V75.47h18.28V48.92c-1.54-1.93-6.4-3.59-11.7-4.5l-7-1.2,6.93-1.39a79.34,79.34,0,0,0,13.14-4.32V14.58c-8-5.62-17.75-8-32.43-8H101.5V74.06l19.69,1.41V50.15h10.38C137.31,50.15,141.14,50.86,144.37,52.51Zm-23.18-15V17.81h11.23c6,0,9,.31,12.06,2.26l.62.39V34.91l-.71.37c-3,1.57-6.55,2.22-12.27,2.22Z"/>
    <path class="cls-1" d="M257.61,74.06V12.68C249.72,7.83,238,5,226.07,5c-11.73,0-23.81,3-31.74,7.73V74.06H214V53h23.9V74.06ZM214,40.31V20.72l.76-.35A27.24,27.24,0,0,1,226,18.2a26.5,26.5,0,0,1,11.2,2.18l.75.35V40.31Z"/>
    <path class="cls-1" d="M353.25,27.87V6.55H333.56v21c0,20.46-7.1,29.14-12.29,35.49l-1,1.26-1-1.27c-5.23-6.48-12.38-15.36-12.38-35.48v-21H287.15V27.87c0,23.45,11.2,37.24,22.28,47.6H331C341.43,65.77,353.25,51.59,353.25,27.87Z"/>
    <rect class="cls-1" x="382.79" y="6.55" width="19.69" height="67.51"/>
    <path class="cls-1" d="M479.05,22.34l.78.35V75.47h19.69v-61c-8.39-5.1-20.67-8.13-33-8.13s-24.7,3-33.05,8.13v61h19.69V22.69l.77-.35a34.6,34.6,0,0,1,25.17,0Z"/>
    <path class="cls-1" d="M593.75,69.26V51.56H574.06v9l-.82.33A31.51,31.51,0,0,1,561.4,63a31,31,0,0,1-11.85-2.08l-.81-.34V21.34l.86-.32a34.65,34.65,0,0,1,11.8-1.95,33,33,0,0,1,11.82,2l.84.33v9.1h19.69V12.75C585.29,8,573.87,5.38,561.5,5.38c-12.19,0-24,2.68-32.45,7.38v56.5c8.6,4.7,20.37,7.38,32.44,7.38C573.92,76.54,585.33,73.92,593.75,69.26Z"/>
    <rect class="cls-1" x="623.28" y="6.55" width="19.69" height="67.51"/>
    <text class="cls-2" transform="translate(663.03 76.06)">.</text>
  </g>
</svg>
